#!OML:ASF F:\VICON\USERDATA\INSTALL\rory3\rory3.ASF
:FULLY-SPECIFIED
:DEGREES
97
root 0.9193566461594329 18.046502438415732 40.558690749583484 2.359364734742595 0.5088597036997276 -1.397458699801824
lfemur -26.889465692914044 1.6462374616076734 -21.258538044422732
ltibia 39.590270414981674
lfoot 1.2650707377237949 -8.535930504284137
ltoes -5.074728188739821
rfemur -9.065371087858459 5.564532332460864 29.580002351348536
rtibia 52.09948091627536
rfoot -6.05897146468246 -6.118960336075255
rtoes 1.17538857556402
lowerback 12.803398461631541 1.022640923119006 2.9202145893827165
upperback -0.8783760033788952 3.717428568610609 1.7577545469405953
thorax -8.324221692585606 1.5205178940191404 -1.1473708459973229
lowerneck -19.400104245203714 -4.27809243475241 -1.6890038271206045
upperneck 9.970955232077541 -5.736042990075687 3.263874216531292
head 6.347050357576847 -2.391004883130762 0.7857732204924801
lclavicle 4.287488207731266e-15 5.75886165290891e-17
lhumerus -56.922179352523266 -10.531034803836102 96.60405971699728
lradius 109.02366000558779
lwrist 28.819131699321844
lhand -29.778320375210455 2.986053618362884
lfingers 7.125019999999998
lthumb -3.112733762249698 33.10219843975717
rclavicle 4.28752700038245e-15 5.761646213958064e-17
rhumerus -38.574968710431975 14.92127030100726 -97.86115080922937
rradius 105.71495804176104
rwrist -9.491293092751336
rhand -20.376804831959063 36.409154165233645
rfingers 7.125019999999998
rthumb 5.863558903469495 6.405280566482444
98
root 0.9397934286655385 18.098241955735393 40.48055885435516 2.4056743787878587 0.671584867684935 -1.4605605138020532
lfemur -27.033650185624857 1.2429424287512185 -21.3946601479037
ltibia 37.06007395447507
lfoot 1.7235280290462716 -8.211098557281383
ltoes -4.701727729664324
rfemur -9.654265080416259 5.565711509270821 29.167372847499838
rtibia 52.03285309470685
rfoot -5.074352291478176 -5.589037182015629
rtoes 1.293306510741935
lowerback 12.563075016703717 1.0517472548026254 2.9383088991419477
upperback -0.9201542705366783 3.7476455724385014 1.6876474133932589
thorax -8.246473039612045 1.6113146562308394 -1.091854246996783
lowerneck -19.491415479405344 -4.364299197055909 -1.7434402646031124
upperneck 10.04929816485055 -5.682458361525541 3.3155780087423965
head 6.318716670392349 -2.410285434391247 0.785112537591532
lclavicle 4.287488207731266e-15 5.75886165290891e-17
lhumerus -57.978297633985186 -10.644846789627753 96.3868637310473
lradius 109.04049958907149
lwrist 28.759945580020847
lhand -29.853291801791592 2.953953379243436
lfingers 7.125019999999998
lthumb -3.2145407635444485 32.98193281189125
rclavicle 4.28752700038245e-15 5.761646213958064e-17
rhumerus -38.12839091234666 15.237048769845224 -97.8835738658723
rradius 105.82067173043173
rwrist -9.566224335259468
rhand -20.394325097978072 36.377547828842054
rfingers 7.125019999999998
rthumb 5.951332105927088 6.5178160098361655
99
root 0.9530357835337435 18.131600167695716 40.31736878536668 2.4053655508776703 0.7431035464002076 -1.4820499529682674
lfemur -24.900228289650936 1.3436911818491288 -21.090117132430194
ltibia 35.71922721582126
lfoot 2.297007349517874 -8.142565550754966
ltoes -4.3780644291858
rfemur -8.884666089480021 5.687312533359206 29.332702026193175
rtibia 51.91220181036862
rfoot -5.438724451088229 -5.7468154807142735
rtoes 1.507428968296931
lowerback 12.365578100597947 1.0686891354903587 2.9307776486827746
upperback -0.9610828141923556 3.6686187944096527 1.5831298793098139
thorax -8.211474837012009 1.5988811389174893 -1.1893477698523527
lowerneck -19.475640897442183 -4.360890131101049 -1.7510045570366195
upperneck 9.975177182290668 -5.699389230799584 3.296726638276098
head 6.289617680403702 -2.4476825679463667 0.7755887382198597
lclavicle 4.287488207731266e-15 5.75886165290891e-17
lhumerus -58.57203847696198 -10.630261892963889 96.22005185244763
lradius 109.17594111176584
lwrist 28.69677967703885
lhand -29.85414694849702 2.9181874723720687
lfingers 7.125019999999998
lthumb -3.163832378656013 33.05972521798168
rclavicle 4.28752700038245e-15 5.761646213958064e-17
rhumerus -37.79473231442035 15.533729474429153 -97.89555526015
rradius 105.95053566679576
rwrist -9.553643938603127
rhand -20.438493481359025 36.29342028921108
rfingers 7.125019999999998
rthumb 5.987407881789318 6.631807834157737
100
root 0.9649205329138846 18.155526096854235 40.666149443579144 2.3628793682647062 0.9536128438631575 -1.4131111574064794
lfemur -24.64941511922629 1.1706186226024249 -21.330711955066747
ltibia 35.08282058764379
lfoot 3.4189839847808905 -8.670848821664807
ltoes -4.529518679309038
rfemur -7.250133616368684 6.171048132710661 30.134700640384207
rtibia 52.20246700315378
rfoot -5.2285913897003065 -5.995207019137333
rtoes 2.6230164783806273
lowerback 12.164292265300084 1.0346105265552237 2.7837034447696283
upperback -1.0280785079867965 3.45882868709871 1.4346103709972549
thorax -8.074977555025283 1.7117569299584825 -0.9678353652013463
lowerneck -19.569156858446302 -4.409329881452351 -1.8155001970217728
upperneck 10.029938833563012 -5.684801872184501 3.3298957999813505
head 6.285815737057559 -2.4712864525714386 0.7774750847136229
lclavicle 4.287488207731266e-15 5.75886165290891e-17
lhumerus -58.315027028087464 -10.55829903320317 96.11750115867883
lradius 109.3343184389311
lwrist 28.72452270771132
lhand -29.848764371174212 2.911639877880943
lfingers 7.125019999999998
lthumb -3.151756228305485 33.0270522022085
rclavicle 4.28752700038245e-15 5.761646213958064e-17
rhumerus -37.79214500369874 15.727693520615993 -97.96808442535665
rradius 106.03122454085158
rwrist -9.488118592306659
rhand -20.431737940977442 36.292863180478854
rfingers 7.125019999999998
rthumb 5.907321470970026 6.6035538517290195
101
root 0.9672035082296646 18.16557515205666 40.95032331692683 2.296887226370547 1.0779249986299069 -1.2972476388456757
lfemur -22.381486642350843 1.2908979696136287 -21.294331736033712
ltibia 35.01714449580342
lfoot 4.312139009290262 -9.551656080634643
ltoes -4.453424207315319
rfemur -8.074771070531947 5.955741211997878 29.640182737227587
rtibia 53.06242094844654
rfoot -4.948610296464602 -6.173521795787575
rtoes 2.5636609788527047
lowerback 12.020666964363173 1.0157163660336066 2.6171212669442143
upperback -1.069860099028472 3.2987150619108334 1.317641409162315
thorax -8.077225019301217 1.663290473631363 -1.0484082747563073
lowerneck -19.540373903107703 -4.338665874386341 -1.8123968041923768
upperneck 10.02032874114148 -5.692082742924555 3.32983210967303
head 6.317003357550531 -2.4568301841236777 0.7906332483785965
lclavicle 4.287488207731266e-15 5.75886165290891e-17
lhumerus -57.75527479312412 -10.361265030943843 96.05554065828797
lradius 109.45240090696251
lwrist 28.664763186923686
lhand -29.813466438202468 2.8954933122368898
lfingers 7.125019999999998
lthumb -3.1287515455035098 33.09571805601084
rclavicle 4.28752700038245e-15 5.761646213958064e-17
rhumerus -37.8708454376979 15.900949409438388 -98.04989256904409
rradius 106.03496030792783
rwrist -9.45471877792543
rhand -20.435173976803448 36.271026488601834
rfingers 7.125019999999998
rthumb 5.83044485070014 6.524496584291959
